<mxfile host="app.diagrams.net" modified="2022-02-11T03:29:40.363Z" agent="5.0 (Windows NT 10.0; Win64; x64) AppleWebKit/537.36 (KHTML, like Gecko) Chrome/99.0.4844.17 Safari/537.36 Edg/99.0.1150.11" etag="d3MJsnRcBKV2H9XIf-PA" version="16.4.11" type="github">
  <diagram id="C5RBs43oDa-KdzZeNtuy" name="Page-1">
    <mxGraphModel dx="1422" dy="786" grid="1" gridSize="10" guides="1" tooltips="1" connect="1" arrows="1" fold="1" page="1" pageScale="1" pageWidth="827" pageHeight="1169" math="0" shadow="0">
      <root>
        <mxCell id="WIyWlLk6GJQsqaUBKTNV-0" />
        <mxCell id="WIyWlLk6GJQsqaUBKTNV-1" parent="WIyWlLk6GJQsqaUBKTNV-0" />
        <mxCell id="ByDO-ENAgINveSXhvqZd-1" value="" style="rounded=1;whiteSpace=wrap;html=1;fontSize=12;glass=0;strokeWidth=1;shadow=0;fontFamily=JetBrains Mono;fillColor=#dae8fc;strokeColor=#6c8ebf;" vertex="1" parent="WIyWlLk6GJQsqaUBKTNV-1">
          <mxGeometry x="510" y="157" width="130" height="480" as="geometry" />
        </mxCell>
        <mxCell id="WIyWlLk6GJQsqaUBKTNV-3" value="" style="rounded=1;whiteSpace=wrap;html=1;fontSize=12;glass=0;strokeWidth=1;shadow=0;fontFamily=JetBrains Mono;fillColor=#ffe6cc;strokeColor=#d79b00;" parent="WIyWlLk6GJQsqaUBKTNV-1" vertex="1">
          <mxGeometry x="160" y="157" width="130" height="480" as="geometry" />
        </mxCell>
        <mxCell id="ByDO-ENAgINveSXhvqZd-0" value="Snychronizer-Lock" style="rounded=1;whiteSpace=wrap;html=1;fontFamily=JetBrains Mono;fillColor=#d5e8d4;strokeColor=#82b366;" vertex="1" parent="WIyWlLk6GJQsqaUBKTNV-1">
          <mxGeometry x="70" y="367" width="660" height="60" as="geometry" />
        </mxCell>
        <mxCell id="ByDO-ENAgINveSXhvqZd-6" value="" style="endArrow=classic;html=1;rounded=0;fontFamily=JetBrains Mono;" edge="1" parent="WIyWlLk6GJQsqaUBKTNV-1">
          <mxGeometry width="50" height="50" relative="1" as="geometry">
            <mxPoint x="225" y="187" as="sourcePoint" />
            <mxPoint x="225" y="500" as="targetPoint" />
          </mxGeometry>
        </mxCell>
        <mxCell id="ByDO-ENAgINveSXhvqZd-7" value="顺利通过" style="edgeLabel;html=1;align=center;verticalAlign=middle;resizable=0;points=[];fontFamily=JetBrains Mono;" vertex="1" connectable="0" parent="ByDO-ENAgINveSXhvqZd-6">
          <mxGeometry x="0.51" y="-2" relative="1" as="geometry">
            <mxPoint y="39" as="offset" />
          </mxGeometry>
        </mxCell>
        <mxCell id="ByDO-ENAgINveSXhvqZd-13" value="获取锁" style="edgeLabel;html=1;align=center;verticalAlign=middle;resizable=0;points=[];fontFamily=JetBrains Mono;" vertex="1" connectable="0" parent="ByDO-ENAgINveSXhvqZd-6">
          <mxGeometry x="-0.295" relative="1" as="geometry">
            <mxPoint as="offset" />
          </mxGeometry>
        </mxCell>
        <mxCell id="ByDO-ENAgINveSXhvqZd-9" value="" style="endArrow=classic;html=1;rounded=0;fontFamily=JetBrains Mono;" edge="1" parent="WIyWlLk6GJQsqaUBKTNV-1">
          <mxGeometry width="50" height="50" relative="1" as="geometry">
            <mxPoint x="574.5" y="187" as="sourcePoint" />
            <mxPoint x="575" y="367" as="targetPoint" />
          </mxGeometry>
        </mxCell>
        <mxCell id="ByDO-ENAgINveSXhvqZd-10" value="未获取到锁" style="edgeLabel;html=1;align=center;verticalAlign=middle;resizable=0;points=[];fontFamily=JetBrains Mono;" vertex="1" connectable="0" parent="ByDO-ENAgINveSXhvqZd-9">
          <mxGeometry x="0.51" y="-2" relative="1" as="geometry">
            <mxPoint y="-23" as="offset" />
          </mxGeometry>
        </mxCell>
        <mxCell id="ByDO-ENAgINveSXhvqZd-11" value="" style="edgeStyle=segmentEdgeStyle;endArrow=classic;html=1;rounded=0;fontFamily=JetBrains Mono;" edge="1" parent="WIyWlLk6GJQsqaUBKTNV-1">
          <mxGeometry width="50" height="50" relative="1" as="geometry">
            <mxPoint x="551" y="407" as="sourcePoint" />
            <mxPoint x="601" y="387" as="targetPoint" />
            <Array as="points">
              <mxPoint x="551" y="407" />
              <mxPoint x="601" y="407" />
            </Array>
          </mxGeometry>
        </mxCell>
        <mxCell id="ByDO-ENAgINveSXhvqZd-12" value="" style="edgeStyle=segmentEdgeStyle;endArrow=classic;html=1;rounded=0;fontFamily=JetBrains Mono;" edge="1" parent="WIyWlLk6GJQsqaUBKTNV-1">
          <mxGeometry width="50" height="50" relative="1" as="geometry">
            <mxPoint x="600" y="387" as="sourcePoint" />
            <mxPoint x="550" y="407" as="targetPoint" />
            <Array as="points">
              <mxPoint x="600" y="387" />
              <mxPoint x="550" y="387" />
            </Array>
          </mxGeometry>
        </mxCell>
        <mxCell id="ByDO-ENAgINveSXhvqZd-14" value="阻塞" style="text;html=1;resizable=0;autosize=1;align=center;verticalAlign=middle;points=[];fillColor=none;strokeColor=none;rounded=0;fontFamily=JetBrains Mono;" vertex="1" parent="WIyWlLk6GJQsqaUBKTNV-1">
          <mxGeometry x="555" y="387" width="40" height="20" as="geometry" />
        </mxCell>
        <mxCell id="ByDO-ENAgINveSXhvqZd-15" value="" style="endArrow=classic;html=1;rounded=0;fillColor=#008a00;strokeColor=#005700;fontFamily=JetBrains Mono;" edge="1" parent="WIyWlLk6GJQsqaUBKTNV-1">
          <mxGeometry width="50" height="50" relative="1" as="geometry">
            <mxPoint x="574.5" y="427" as="sourcePoint" />
            <mxPoint x="575" y="490" as="targetPoint" />
          </mxGeometry>
        </mxCell>
        <mxCell id="ByDO-ENAgINveSXhvqZd-16" value="获取到锁后通过" style="edgeLabel;html=1;align=center;verticalAlign=middle;resizable=0;points=[];fontFamily=JetBrains Mono;" vertex="1" connectable="0" parent="ByDO-ENAgINveSXhvqZd-15">
          <mxGeometry x="-0.225" y="2" relative="1" as="geometry">
            <mxPoint y="10" as="offset" />
          </mxGeometry>
        </mxCell>
        <mxCell id="ByDO-ENAgINveSXhvqZd-18" value="" style="endArrow=none;html=1;rounded=0;fillColor=#e51400;strokeColor=#B20000;fontFamily=JetBrains Mono;" edge="1" parent="WIyWlLk6GJQsqaUBKTNV-1">
          <mxGeometry width="50" height="50" relative="1" as="geometry">
            <mxPoint x="224.5" y="580" as="sourcePoint" />
            <mxPoint x="224.5" y="510" as="targetPoint" />
          </mxGeometry>
        </mxCell>
        <mxCell id="ByDO-ENAgINveSXhvqZd-19" value="" style="shape=curlyBracket;whiteSpace=wrap;html=1;rounded=1;fontFamily=JetBrains Mono;" vertex="1" parent="WIyWlLk6GJQsqaUBKTNV-1">
          <mxGeometry x="196" y="510" width="20" height="70" as="geometry" />
        </mxCell>
        <mxCell id="ByDO-ENAgINveSXhvqZd-21" value="执行业务" style="text;html=1;resizable=0;autosize=1;align=center;verticalAlign=middle;points=[];fillColor=none;strokeColor=none;rounded=0;fontFamily=JetBrains Mono;" vertex="1" parent="WIyWlLk6GJQsqaUBKTNV-1">
          <mxGeometry x="136" y="535" width="60" height="20" as="geometry" />
        </mxCell>
        <mxCell id="ByDO-ENAgINveSXhvqZd-22" value="" style="endArrow=none;html=1;rounded=0;fillColor=#e51400;strokeColor=#B20000;fontFamily=JetBrains Mono;" edge="1" parent="WIyWlLk6GJQsqaUBKTNV-1">
          <mxGeometry width="50" height="50" relative="1" as="geometry">
            <mxPoint x="574.5" y="570" as="sourcePoint" />
            <mxPoint x="574.5" y="500" as="targetPoint" />
          </mxGeometry>
        </mxCell>
        <mxCell id="ByDO-ENAgINveSXhvqZd-23" value="" style="shape=curlyBracket;whiteSpace=wrap;html=1;rounded=1;fontFamily=JetBrains Mono;" vertex="1" parent="WIyWlLk6GJQsqaUBKTNV-1">
          <mxGeometry x="547" y="500" width="20" height="70" as="geometry" />
        </mxCell>
        <mxCell id="ByDO-ENAgINveSXhvqZd-24" value="执行业务" style="text;html=1;resizable=0;autosize=1;align=center;verticalAlign=middle;points=[];fillColor=none;strokeColor=none;rounded=0;fontFamily=JetBrains Mono;" vertex="1" parent="WIyWlLk6GJQsqaUBKTNV-1">
          <mxGeometry x="487" y="525" width="60" height="20" as="geometry" />
        </mxCell>
        <mxCell id="ByDO-ENAgINveSXhvqZd-25" value="释放锁" style="text;html=1;strokeColor=none;fillColor=none;align=center;verticalAlign=middle;whiteSpace=wrap;rounded=0;fontFamily=JetBrains Mono;" vertex="1" parent="WIyWlLk6GJQsqaUBKTNV-1">
          <mxGeometry x="195" y="600" width="60" height="30" as="geometry" />
        </mxCell>
        <mxCell id="ByDO-ENAgINveSXhvqZd-26" value="" style="endArrow=classic;html=1;rounded=0;exitX=1;exitY=0.5;exitDx=0;exitDy=0;fontFamily=JetBrains Mono;" edge="1" parent="WIyWlLk6GJQsqaUBKTNV-1" source="ByDO-ENAgINveSXhvqZd-25">
          <mxGeometry width="50" height="50" relative="1" as="geometry">
            <mxPoint x="400" y="410" as="sourcePoint" />
            <mxPoint x="570" y="430" as="targetPoint" />
          </mxGeometry>
        </mxCell>
        <mxCell id="ByDO-ENAgINveSXhvqZd-27" value="结束阻塞" style="edgeLabel;html=1;align=center;verticalAlign=middle;resizable=0;points=[];fontFamily=JetBrains Mono;" vertex="1" connectable="0" parent="ByDO-ENAgINveSXhvqZd-26">
          <mxGeometry x="-0.1173" y="-2" relative="1" as="geometry">
            <mxPoint as="offset" />
          </mxGeometry>
        </mxCell>
        <mxCell id="ByDO-ENAgINveSXhvqZd-29" value="" style="endArrow=classic;html=1;rounded=0;fontFamily=JetBrains Mono;" edge="1" parent="WIyWlLk6GJQsqaUBKTNV-1">
          <mxGeometry width="50" height="50" relative="1" as="geometry">
            <mxPoint x="224.5" y="586" as="sourcePoint" />
            <mxPoint x="225" y="606" as="targetPoint" />
          </mxGeometry>
        </mxCell>
        <mxCell id="ByDO-ENAgINveSXhvqZd-31" value="释放锁" style="text;html=1;strokeColor=none;fillColor=none;align=center;verticalAlign=middle;whiteSpace=wrap;rounded=0;fontFamily=JetBrains Mono;" vertex="1" parent="WIyWlLk6GJQsqaUBKTNV-1">
          <mxGeometry x="545" y="600" width="60" height="30" as="geometry" />
        </mxCell>
        <mxCell id="ByDO-ENAgINveSXhvqZd-32" value="" style="endArrow=classic;html=1;rounded=0;fontFamily=JetBrains Mono;" edge="1" parent="WIyWlLk6GJQsqaUBKTNV-1">
          <mxGeometry width="50" height="50" relative="1" as="geometry">
            <mxPoint x="574.5" y="586" as="sourcePoint" />
            <mxPoint x="575" y="606" as="targetPoint" />
          </mxGeometry>
        </mxCell>
        <mxCell id="ByDO-ENAgINveSXhvqZd-34" value="Thread-1" style="text;html=1;strokeColor=none;fillColor=none;align=center;verticalAlign=middle;whiteSpace=wrap;rounded=0;fontFamily=JetBrains Mono;fontStyle=1" vertex="1" parent="WIyWlLk6GJQsqaUBKTNV-1">
          <mxGeometry x="195" y="120" width="60" height="30" as="geometry" />
        </mxCell>
        <mxCell id="ByDO-ENAgINveSXhvqZd-35" value="Thread-2" style="text;html=1;strokeColor=none;fillColor=none;align=center;verticalAlign=middle;whiteSpace=wrap;rounded=0;fontFamily=JetBrains Mono;fontStyle=1" vertex="1" parent="WIyWlLk6GJQsqaUBKTNV-1">
          <mxGeometry x="545" y="120" width="60" height="30" as="geometry" />
        </mxCell>
      </root>
    </mxGraphModel>
  </diagram>
</mxfile>
